<?xml version="1.0" encoding="UTF-8" standalone="no"?><svg xmlns="http://www.w3.org/2000/svg" xmlns:xlink="http://www.w3.org/1999/xlink" contentScriptType="application/ecmascript" contentStyleType="text/css" height="265px" preserveAspectRatio="none" style="width:435px;height:265px;" version="1.1" viewBox="0 0 435 265" width="435px" zoomAndPan="magnify"><defs><filter height="300%" id="fn6ua30doqrmg" width="300%" x="-1" y="-1"><feGaussianBlur result="blurOut" stdDeviation="2.0"/><feColorMatrix in="blurOut" result="blurOut2" type="matrix" values="0 0 0 0 0 0 0 0 0 0 0 0 0 0 0 0 0 0 .4 0"/><feOffset dx="4.0" dy="4.0" in="blurOut2" result="blurOut3"/><feBlend in="SourceGraphic" in2="blurOut3" mode="normal"/></filter></defs><g><!--entity m--><rect fill="#F8F8F8" filter="url(#fn6ua30doqrmg)" height="36.4883" style="stroke: #383838; stroke-width: 1.5;" width="58" x="226" y="8"/><rect fill="#F8F8F8" height="5" style="stroke: #383838; stroke-width: 1.5;" width="10" x="221" y="13"/><rect fill="#F8F8F8" height="5" style="stroke: #383838; stroke-width: 1.5;" width="10" x="221" y="34.4883"/><text fill="#000000" font-family="sans-serif" font-size="14" lengthAdjust="spacingAndGlyphs" textLength="38" x="236" y="31.5352">mailo</text><!--entity s3data--><rect fill="#F8F8F8" filter="url(#fn6ua30doqrmg)" height="36.4883" style="stroke: #383838; stroke-width: 1.5;" width="108" x="6" y="218"/><rect fill="#F8F8F8" height="5" style="stroke: #383838; stroke-width: 1.5;" width="10" x="1" y="223"/><rect fill="#F8F8F8" height="5" style="stroke: #383838; stroke-width: 1.5;" width="10" x="1" y="244.4883"/><text fill="#000000" font-family="sans-serif" font-size="14" lengthAdjust="spacingAndGlyphs" textLength="88" x="16" y="241.5352">S3 templates</text><!--entity local--><rect fill="#F8F8F8" filter="url(#fn6ua30doqrmg)" height="36.4883" style="stroke: #383838; stroke-width: 1.5;" width="123" x="149.5" y="218"/><rect fill="#F8F8F8" height="5" style="stroke: #383838; stroke-width: 1.5;" width="10" x="144.5" y="223"/><rect fill="#F8F8F8" height="5" style="stroke: #383838; stroke-width: 1.5;" width="10" x="144.5" y="244.4883"/><text fill="#000000" font-family="sans-serif" font-size="14" lengthAdjust="spacingAndGlyphs" textLength="103" x="159.5" y="241.5352">local templates</text><!--entity data--><rect fill="#F8F8F8" filter="url(#fn6ua30doqrmg)" height="36.4883" style="stroke: #383838; stroke-width: 1.5;" width="50" x="186" y="105"/><rect fill="#F8F8F8" height="5" style="stroke: #383838; stroke-width: 1.5;" width="10" x="181" y="110"/><rect fill="#F8F8F8" height="5" style="stroke: #383838; stroke-width: 1.5;" width="10" x="181" y="131.4883"/><text fill="#000000" font-family="sans-serif" font-size="14" lengthAdjust="spacingAndGlyphs" textLength="30" x="196" y="128.5352">data</text><!--entity client--><rect fill="#F8F8F8" filter="url(#fn6ua30doqrmg)" height="36.4883" style="stroke: #383838; stroke-width: 1.5;" width="57" x="304.5" y="105"/><rect fill="#F8F8F8" height="5" style="stroke: #383838; stroke-width: 1.5;" width="10" x="299.5" y="110"/><rect fill="#F8F8F8" height="5" style="stroke: #383838; stroke-width: 1.5;" width="10" x="299.5" y="131.4883"/><text fill="#000000" font-family="sans-serif" font-size="14" lengthAdjust="spacingAndGlyphs" textLength="37" x="314.5" y="128.5352">client</text><!--entity mclient--><rect fill="#F8F8F8" filter="url(#fn6ua30doqrmg)" height="36.4883" style="stroke: #383838; stroke-width: 1.5;" width="117" x="307.5" y="218"/><rect fill="#F8F8F8" height="5" style="stroke: #383838; stroke-width: 1.5;" width="10" x="302.5" y="223"/><rect fill="#F8F8F8" height="5" style="stroke: #383838; stroke-width: 1.5;" width="10" x="302.5" y="244.4883"/><text fill="#000000" font-family="sans-serif" font-size="14" lengthAdjust="spacingAndGlyphs" textLength="97" x="317.5" y="241.5352">mailgun client</text><!--link m to data--><path d="M246.7239,44.245 C238.8574,61.587 227.0932,87.5219 219.239,104.8369 " fill="none" id="m-data" style="stroke: #383838; stroke-width: 1.0;"/><path d="M242.3374,71.0326 A10,10 0 0 0 229.4583 65.1905" fill="#FFFFFF" style="stroke: #383838; stroke-width: 1.5;"/><ellipse cx="232.9768" cy="74.5511" fill="#FFFFFF" rx="6" ry="6" style="stroke: #383838; stroke-width: 1.5;"/><!--link data to s3data--><path d="M182.6615,144.2069 C154.2687,165.4546 111.0334,197.8094 84.2006,217.8897 " fill="none" id="data-s3data" style="stroke: #383838; stroke-width: 1.0;"/><polygon fill="#383838" points="186.7392,141.1554,177.1369,143.3454,182.7361,144.1512,181.9303,149.7504,186.7392,141.1554" style="stroke: #383838; stroke-width: 1.0;"/><text fill="#000000" font-family="sans-serif" font-size="13" lengthAdjust="spacingAndGlyphs" textLength="50" x="146" y="184.5684">extends</text><!--link data to local--><path d="M211,146.3319 C211,167.563 211,198.4678 211,217.8897 " fill="none" id="data-local" style="stroke: #383838; stroke-width: 1.0;"/><polygon fill="#383838" points="211,141.1554,207,150.1554,211,146.1554,215,150.1554,211,141.1554" style="stroke: #383838; stroke-width: 1.0;"/><text fill="#000000" font-family="sans-serif" font-size="13" lengthAdjust="spacingAndGlyphs" textLength="50" x="212" y="184.5684">extends</text><!--link m to client--><path d="M269.6712,44.245 C283.6164,61.587 304.4712,87.5219 318.3946,104.8369 " fill="none" id="m-client" style="stroke: #383838; stroke-width: 1.0;"/><path d="M295.1204,64.6095 A10,10 0 0 0 284.0995 73.4717" fill="#FFFFFF" style="stroke: #383838; stroke-width: 1.5;"/><ellipse cx="294.0411" cy="74.5511" fill="#FFFFFF" rx="6" ry="6" style="stroke: #383838; stroke-width: 1.5;"/><!--link client to mclient--><path d="M339.7351,146.0625 C345.9374,167.3009 355.0152,198.3855 360.7111,217.8897 " fill="none" id="client-mclient" style="stroke: #383838; stroke-width: 1.0;"/><polygon fill="#383838" points="338.302,141.1554,336.9854,150.9159,339.7037,145.9549,344.6647,148.6732,338.302,141.1554" style="stroke: #383838; stroke-width: 1.0;"/><text fill="#000000" font-family="sans-serif" font-size="13" lengthAdjust="spacingAndGlyphs" textLength="50" x="352" y="184.5684">extends</text><!--
@startuml mailodeps

skinparam monochrome true

[mailo] as m
[S3 templates] as s3data
[local templates] as local
[data] as data
[client] as client
[mailgun client] as mclient

m -(0- data
data <- - s3data : extends
data <- - local : extends
m -(0- client
client <- - mclient : extends

@enduml

PlantUML version 1.2018.01(Sun Jan 28 19:08:22 CET 2018)
(GPL source distribution)
Java Runtime: Java(TM) SE Runtime Environment
JVM: Java HotSpot(TM) 64-Bit Server VM
Java Version: 1.8.0_131-b11
Operating System: Mac OS X
OS Version: 10.13.3
Default Encoding: UTF-8
Language: en
Country: US
--></g></svg>