<?xml version="1.0" encoding="UTF-8" standalone="no"?><svg xmlns="http://www.w3.org/2000/svg" xmlns:xlink="http://www.w3.org/1999/xlink" contentScriptType="application/ecmascript" contentStyleType="text/css" height="247px" preserveAspectRatio="none" style="width:569px;height:247px;" version="1.1" viewBox="0 0 569 247" width="569px" zoomAndPan="magnify"><defs><filter height="300%" id="fn4uv8lj0lb31" width="300%" x="-1" y="-1"><feGaussianBlur result="blurOut" stdDeviation="2.0"/><feColorMatrix in="blurOut" result="blurOut2" type="matrix" values="0 0 0 0 0 0 0 0 0 0 0 0 0 0 0 0 0 0 .4 0"/><feOffset dx="4.0" dy="4.0" in="blurOut2" result="blurOut3"/><feBlend in="SourceGraphic" in2="blurOut3" mode="normal"/></filter></defs><g><!--entity S3--><path d="M26,15 C26,12 28,10 31,10 C34,10 36,12 36,15 C36,12 38,10 41,10 C44,10 46,12 46,15 C46,12 48,10 51,10 C54,10 56,12 56,15 C59,15 61,17 61,20 C61,23 59,25 56,25 C59,25 61,27 61,30 C61,33 59,35 56,35 C56,38 53,40 51,40 C48,40 46,38 46,35 C46,38 43,40 41,40 C38,40 36,38 36,35 C36,38 33,40 31,40 C28,40 26,38 26,35 C23,35 21,33 21,30 C21,27 23,25 26,25 C23,25 21,23 21,20 C21,17 23,15 26,15 " fill="#F8F8F8" filter="url(#fn4uv8lj0lb31)" style="stroke: #000000; stroke-width: 1.5;"/><text fill="#000000" font-family="sans-serif" font-size="14" lengthAdjust="spacingAndGlyphs" textLength="17" x="33" y="31.5352">S3</text><!--entity m--><rect fill="#F8F8F8" filter="url(#fn4uv8lj0lb31)" height="36.4883" style="stroke: #383838; stroke-width: 1.5;" width="58" x="118.5" y="8"/><rect fill="#F8F8F8" height="5" style="stroke: #383838; stroke-width: 1.5;" width="10" x="113.5" y="13"/><rect fill="#F8F8F8" height="5" style="stroke: #383838; stroke-width: 1.5;" width="10" x="113.5" y="34.4883"/><text fill="#000000" font-family="sans-serif" font-size="14" lengthAdjust="spacingAndGlyphs" textLength="38" x="128.5" y="31.5352">mailo</text><!--entity data--><rect fill="#F8F8F8" filter="url(#fn4uv8lj0lb31)" height="36.4883" style="stroke: #383838; stroke-width: 1.5;" width="71" x="6" y="104"/><rect fill="#F8F8F8" height="5" style="stroke: #383838; stroke-width: 1.5;" width="10" x="1" y="109"/><rect fill="#F8F8F8" height="5" style="stroke: #383838; stroke-width: 1.5;" width="10" x="1" y="130.4883"/><text fill="#000000" font-family="sans-serif" font-size="14" lengthAdjust="spacingAndGlyphs" textLength="51" x="16" y="127.5352">S3 data</text><!--entity client--><rect fill="#F8F8F8" filter="url(#fn4uv8lj0lb31)" height="36.4883" style="stroke: #383838; stroke-width: 1.5;" width="117" x="112" y="104"/><rect fill="#F8F8F8" height="5" style="stroke: #383838; stroke-width: 1.5;" width="10" x="107" y="109"/><rect fill="#F8F8F8" height="5" style="stroke: #383838; stroke-width: 1.5;" width="10" x="107" y="130.4883"/><text fill="#000000" font-family="sans-serif" font-size="14" lengthAdjust="spacingAndGlyphs" textLength="97" x="122" y="127.5352">mailgun client</text><!--entity queue--><path d="M144,205 L197,205 C202,205 202,218.2441 202,218.2441 C202,218.2441 202,231.4883 197,231.4883 L144,231.4883 C139,231.4883 139,218.2441 139,218.2441 C139,218.2441 139,205 144,205 " fill="#F8F8F8" filter="url(#fn4uv8lj0lb31)" style="stroke: #383838; stroke-width: 1.5;"/><path d="M197,205 C192,205 192,218.2441 192,218.2441 C192,231.4883 197,231.4883 197,231.4883 " fill="none" style="stroke: #383838; stroke-width: 1.5;"/><text fill="#000000" font-family="sans-serif" font-size="14" lengthAdjust="spacingAndGlyphs" textLength="43" x="144" y="223.5352">queue</text><!--entity Mailgun--><path d="M240.5,207 C240.5,204 242.5,202 245.5,202 C248.5,202 250.5,204 250.5,207 C250.5,204 252.5,202 255.5,202 C258.5,202 260.5,204 260.5,207 C260.5,204 262.5,202 265.5,202 C268.5,202 270.5,204 270.5,207 C270.5,204 272.5,202 275.5,202 C278.5,202 280.5,204 280.5,207 C280.5,204 282.5,202 285.5,202 C288.5,202 290.5,204 290.5,207 C290.5,204 292.5,202 295.5,202 C298.5,202 300.5,204 300.5,207 C300.5,204 302.5,202 305.5,202 C308.5,202 310.5,204 310.5,207 C310.5,204 312.5,202 315.5,202 C318.5,202 320.5,204 320.5,207 C320.5,204 322.5,202 325.5,202 C328.5,202 330.5,204 330.5,207 C330.5,204 332.5,202 335.5,202 C338.5,202 340.5,204 340.5,207 C343.5,207 345.5,209 345.5,212 C345.5,215 343.5,217 340.5,217 C343.5,217 345.5,219 345.5,222 C345.5,225 343.5,227 340.5,227 C340.5,230 337.5,232 335.5,232 C332.5,232 330.5,230 330.5,227 C330.5,230 327.5,232 325.5,232 C322.5,232 320.5,230 320.5,227 C320.5,230 317.5,232 315.5,232 C312.5,232 310.5,230 310.5,227 C310.5,230 307.5,232 305.5,232 C302.5,232 300.5,230 300.5,227 C300.5,230 297.5,232 295.5,232 C292.5,232 290.5,230 290.5,227 C290.5,230 287.5,232 285.5,232 C282.5,232 280.5,230 280.5,227 C280.5,230 277.5,232 275.5,232 C272.5,232 270.5,230 270.5,227 C270.5,230 267.5,232 265.5,232 C262.5,232 260.5,230 260.5,227 C260.5,230 257.5,232 255.5,232 C252.5,232 250.5,230 250.5,227 C250.5,230 247.5,232 245.5,232 C242.5,232 240.5,230 240.5,227 C237.5,227 235.5,225 235.5,222 C235.5,219 237.5,217 240.5,217 C237.5,217 235.5,215 235.5,212 C235.5,209 237.5,207 240.5,207 " fill="#F8F8F8" filter="url(#fn4uv8lj0lb31)" style="stroke: #000000; stroke-width: 1.5;"/><text fill="#000000" font-family="sans-serif" font-size="14" lengthAdjust="spacingAndGlyphs" textLength="84" x="247.5" y="223.5352">mailgun ESP</text><!--entity death--><rect fill="#F8F8F8" filter="url(#fn4uv8lj0lb31)" height="36.4883" style="stroke: #383838; stroke-width: 1.5;" width="88" x="376.5" y="200"/><rect fill="#F8F8F8" height="5" style="stroke: #383838; stroke-width: 1.5;" width="10" x="371.5" y="205"/><rect fill="#F8F8F8" height="5" style="stroke: #383838; stroke-width: 1.5;" width="10" x="371.5" y="226.4883"/><text fill="#000000" font-family="sans-serif" font-size="14" lengthAdjust="spacingAndGlyphs" textLength="68" x="386.5" y="223.5352">maildeath</text><!--entity slack--><path d="M502.5,207 C502.5,204 504.5,202 507.5,202 C510.5,202 512.5,204 512.5,207 C512.5,204 514.5,202 517.5,202 C520.5,202 522.5,204 522.5,207 C522.5,204 524.5,202 527.5,202 C530.5,202 532.5,204 532.5,207 C532.5,204 534.5,202 537.5,202 C540.5,202 542.5,204 542.5,207 C542.5,204 544.5,202 547.5,202 C550.5,202 552.5,204 552.5,207 C555.5,207 557.5,209 557.5,212 C557.5,215 555.5,217 552.5,217 C555.5,217 557.5,219 557.5,222 C557.5,225 555.5,227 552.5,227 C552.5,230 549.5,232 547.5,232 C544.5,232 542.5,230 542.5,227 C542.5,230 539.5,232 537.5,232 C534.5,232 532.5,230 532.5,227 C532.5,230 529.5,232 527.5,232 C524.5,232 522.5,230 522.5,227 C522.5,230 519.5,232 517.5,232 C514.5,232 512.5,230 512.5,227 C512.5,230 509.5,232 507.5,232 C504.5,232 502.5,230 502.5,227 C499.5,227 497.5,225 497.5,222 C497.5,219 499.5,217 502.5,217 C499.5,217 497.5,215 497.5,212 C497.5,209 499.5,207 502.5,207 " fill="#F8F8F8" filter="url(#fn4uv8lj0lb31)" style="stroke: #000000; stroke-width: 1.5;"/><text fill="#000000" font-family="sans-serif" font-size="14" lengthAdjust="spacingAndGlyphs" textLength="34" x="509.5" y="223.5352">slack</text><!--link m to data--><path d="M127.5622,44.0569 C108.731,61.1115 80.6283,86.5631 61.7088,103.6977 " fill="none" id="m-data" style="stroke: #383838; stroke-width: 1.0;"/><path d="M104.6564,74.3417 A10,10 0 0 0 95.1631 63.8595" fill="#FFFFFF" style="stroke: #383838; stroke-width: 1.5;"/><ellipse cx="94.6686" cy="73.8473" fill="#FFFFFF" rx="6" ry="6" style="stroke: #383838; stroke-width: 1.5;"/><!--link S3 to data--><path d="M41.5,44.0569 C41.5,59.5126 41.5,81.8647 41.5,98.6731 " fill="none" id="S3-data" style="stroke: #383838; stroke-width: 1.0;"/><polygon fill="#383838" points="41.5,103.6977,45.5,94.6977,41.5,98.6977,37.5,94.6977,41.5,103.6977" style="stroke: #383838; stroke-width: 1.0;"/><!--link m to client--><path d="M151.8261,44.0569 C155.9121,61.1115 162.0099,86.5631 166.1151,103.6977 " fill="none" id="m-client" style="stroke: #383838; stroke-width: 1.0;"/><path d="M164.1924,65.3233 A10,10 0 0 0 150.4394 68.6183" fill="#FFFFFF" style="stroke: #383838; stroke-width: 1.5;"/><ellipse cx="158.9634" cy="73.8473" fill="#FFFFFF" rx="6" ry="6" style="stroke: #383838; stroke-width: 1.5;"/><!--link queue to Mailgun--><path d="M202.1094,218 C212.09,218 222.0706,218 232.0512,218 " fill="none" id="queue-Mailgun" style="stroke: #383838; stroke-width: 1.0;"/><polygon fill="#383838" points="237.2704,218,228.2704,214,232.2704,218,228.2704,222,237.2704,218" style="stroke: #383838; stroke-width: 1.0;"/><!--link client to queue--><path d="M170.5,140.0569 C170.5,157.1862 170.5,182.7861 170.5,199.9223 " fill="none" id="client-queue" style="stroke: #383838; stroke-width: 1.0;"/><polygon fill="#383838" points="170.5,204.95,174.5,195.95,170.5,199.95,166.5,195.95,170.5,204.95" style="stroke: #383838; stroke-width: 1.0;"/><!--link Mailgun to death--><path d="M341.6953,218 C351.5691,218 361.443,218 371.3168,218 " fill="none" id="Mailgun-death" style="stroke: #383838; stroke-width: 1.0;"/><polygon fill="#383838" points="376.4802,218,367.4802,214,371.4802,218,367.4802,222,376.4802,218" style="stroke: #383838; stroke-width: 1.0;"/><!--link death to slack--><path d="M464.8047,218 C474.5186,218 484.2326,218 493.9465,218 " fill="none" id="death-slack" style="stroke: #383838; stroke-width: 1.0;"/><polygon fill="#383838" points="499.0263,218,490.0263,214,494.0263,218,490.0263,222,499.0263,218" style="stroke: #383838; stroke-width: 1.0;"/><!--
@startuml mailoarch

skinparam monochrome true

cloud S3

[mailo] as m
[S3 data] as data
[mailgun client] as client

queue queue
m -(0- data
S3 - -> data
m -(0- client

cloud "mailgun ESP" as Mailgun
queue -> Mailgun
client - -> queue

[maildeath] as death

cloud slack

Mailgun -> death
death -> slack

@enduml

PlantUML version 1.2018.01(Sun Jan 28 19:08:22 CET 2018)
(GPL source distribution)
Java Runtime: Java(TM) SE Runtime Environment
JVM: Java HotSpot(TM) 64-Bit Server VM
Java Version: 1.8.0_131-b11
Operating System: Mac OS X
OS Version: 10.13.3
Default Encoding: UTF-8
Language: en
Country: US
--></g></svg>